<svg xmlns="http://www.w3.org/2000/svg" xmlns:xlink="http://www.w3.org/1999/xlink" width="39.514" height="39.497" viewBox="0 0 39.514 39.497">
  <defs>
    <clipPath id="clip-path">
      <rect id="Rectángulo_35" data-name="Rectángulo 35" width="39.514" height="39.497" transform="translate(0 0)" fill="#103b51"/>
    </clipPath>
  </defs>
  <g id="email" clip-path="url(#clip-path)">
    <path id="Trazado_77" data-name="Trazado 77" d="M19.718,39.493A19.774,19.774,0,0,1,.059,21.281,19.322,19.322,0,0,1,4.985,6.6,18.922,18.922,0,0,1,17.026.2a19.285,19.285,0,0,1,15.94,4.815A19,19,0,0,1,39.36,17.422a19.054,19.054,0,0,1-4.839,15.457,19.659,19.659,0,0,1-14.8,6.613m0-11.508c1.421,0,2.842,0,4.262,0a7.186,7.186,0,0,0,5.144-1.775,6.18,6.18,0,0,0,2.163-4.389c.089-2.148-.006-4.308-.109-6.459a5.118,5.118,0,0,0-1.266-3.026,6.857,6.857,0,0,0-5.521-2.485c-3.048,0-6.1-.015-9.143.007a6.727,6.727,0,0,0-4.577,1.461,5.954,5.954,0,0,0-2.325,4.324c-.072,2.159-.041,4.323.012,6.484a4.642,4.642,0,0,0,.426,1.793,6.655,6.655,0,0,0,6.424,4.061c1.5.018,3.006,0,4.509,0" transform="translate(0 0.003)" fill="#103b51"/>
    <path id="Trazado_78" data-name="Trazado 78" d="M857.911,1156.456c1.386,1.388,2.629,2.612,3.849,3.86a5.913,5.913,0,0,0,4.164,1.976,5.281,5.281,0,0,0,3.809-1.477c1.319-1.269,2.589-2.589,3.886-3.881a5.453,5.453,0,0,1,.562-.415,11.237,11.237,0,0,1,.124,1.2c-.017,1.62-.02,3.242-.1,4.86a3.226,3.226,0,0,1-3.333,2.954c-3.415-.039-6.83,0-10.245,0a3.418,3.418,0,0,1-2.589-2.1,7.293,7.293,0,0,1-.23-1.6c-.027-1.542-.007-3.085,0-4.628a7.164,7.164,0,0,1,.1-.749" transform="translate(-846.234 -1140.87)" fill="#103b51"/>
    <path id="Trazado_79" data-name="Trazado 79" d="M1061.009,975.883c-.547.56-.965,1-1.4,1.43-.969.943-1.917,1.913-2.933,2.8a2.188,2.188,0,0,1-3.126-.278c-1.128-1.22-2.342-2.361-3.518-3.537-.1-.1-.191-.2-.389-.414a3.8,3.8,0,0,1,.739-.17q4.88-.014,9.761,0a5.588,5.588,0,0,1,.868.165" transform="translate(-1035.495 -962.561)" fill="#103b51"/>
  </g>
</svg>
