<svg xmlns="http://www.w3.org/2000/svg" xmlns:xlink="http://www.w3.org/1999/xlink" width="39.514" height="39.24" viewBox="0 0 39.514 39.24">
  <defs>
    <clipPath id="clip-path">
      <rect id="Rectángulo_17" data-name="Rectángulo 17" width="39.514" height="39.24" transform="translate(0 0)" fill="#103b51"/>
    </clipPath>
  </defs>
  <g id="icon_facebook" data-name="icon facebook" transform="translate(0 0)">
    <g id="Grupo_5" data-name="Grupo 5" transform="translate(0 0)" clip-path="url(#clip-path)">
      <path id="Trazado_26" data-name="Trazado 26" d="M39.425,19.716c.031.472.082.945.088,1.417a11.706,11.706,0,0,1-.06,1.347c-.047.459-.14.912-.211,1.368-.015.1-.012.2-.032.3-.067.328-.14.655-.211.983-.067.3-.124.612-.207.912-.109.395-.223.789-.364,1.174q-.287.787-.619,1.557a14.9,14.9,0,0,1-1.437,2.648c-.517.742-1.021,1.5-1.6,2.192a22.06,22.06,0,0,1-1.634,1.678,16.917,16.917,0,0,1-2.364,1.9,13.248,13.248,0,0,1-2.3,1.306c-.682.283-1.351.6-2.037.872-.384.153-.79.251-1.186.372-.255.078-.508.162-.767.224-.418.1-.839.186-1.259.276-.05.011-.1.015-.151.024-.142.026-.2-.041-.2-.176,0-.3,0-.607,0-.91q0-5.894,0-11.788c0-.2-.01-.391-.019-.586-.008-.171.025-.221.195-.246a1.733,1.733,0,0,1,.246-.011q1.806,0,3.612-.009a1.855,1.855,0,0,0,.425-.037.241.241,0,0,0,.143-.165c.044-.3.063-.6.1-.9.016-.126.06-.247.079-.373.058-.388.107-.777.167-1.164.037-.236.088-.469.131-.7.025-.136.047-.272.068-.408q.115-.748.228-1.5a1.4,1.4,0,0,0,.009-.215.151.151,0,0,0-.17-.172c-.077,0-.154,0-.232,0-1.492,0-2.985.006-4.477,0-.543,0-.513-.025-.521-.524-.019-1.232-.012-2.465.03-3.7a2.548,2.548,0,0,1,.885-1.838,2.67,2.67,0,0,1,1.782-.693c.909-.022,1.818-.033,2.727-.056.229-.006.248-.039.248-.271q0-2.137,0-4.274c0-.241-.021-.281-.256-.321-.386-.065-.774-.128-1.163-.167-.533-.054-1.071-.066-1.6-.132a8.831,8.831,0,0,0-1.661-.024,13.118,13.118,0,0,0-1.556.13,6.923,6.923,0,0,0-2.5.921,5.956,5.956,0,0,0-1.633,1.486,6.537,6.537,0,0,0-.879,1.6,11.364,11.364,0,0,0-.408,1.27,8.353,8.353,0,0,0-.163,1.145c-.037.38-.064.763-.066,1.145-.008,1.275,0,2.551,0,3.826,0,.057,0,.113,0,.17-.012.222-.049.265-.275.282-.193.014-.387.024-.581.024q-1.93,0-3.859-.006c-.184,0-.229.031-.238.221-.01.205,0,.411,0,.617q0,2.206,0,4.413a.286.286,0,0,1,0,.046c-.061.364.053.342.342.344,1.214.007,2.429.007,3.643.009.237,0,.473,0,.71,0s.276.059.262.285c-.009.138,0,.277,0,.416q0,6.349,0,12.7c0,.308-.041.344-.34.283-.371-.076-.744-.146-1.11-.241a19.913,19.913,0,0,1-1.993-.557c-.844-.316-1.667-.694-2.482-1.08a18.479,18.479,0,0,1-5.227-3.893A20.884,20.884,0,0,1,3.2,31.549a19.472,19.472,0,0,1-1.885-3.642A10.049,10.049,0,0,1,.97,26.839c-.169-.6-.33-1.195-.485-1.795C.4,24.7.311,24.354.25,24,.2,23.738.237,23.456.172,23.2a5.887,5.887,0,0,1-.146-1.4C.02,21,0,20.19,0,19.384a5.6,5.6,0,0,1,.145-1.205c.075-.344.088-.7.159-1.046.1-.481.22-.959.349-1.433.114-.42.238-.839.381-1.25a20.779,20.779,0,0,1,1.3-2.968A19.463,19.463,0,0,1,3.913,9,19.181,19.181,0,0,1,5.961,6.7,17.826,17.826,0,0,1,8.688,4.462c.708-.453,1.448-.856,2.185-1.26.427-.234.873-.435,1.318-.633a7.514,7.514,0,0,1,.741-.254c.658-.213,1.312-.443,1.979-.627a13.731,13.731,0,0,1,1.484-.3c.609-.1,1.222-.167,1.834-.245.1-.012.2-.008.293-.012l.035-.024.056-.012.68-.047.927,0,.34.031.432.027c.457.049.917.078,1.37.152.616.1,1.227.235,1.841.354a4.972,4.972,0,0,1,.513.093c.471.144.933.315,1.405.454a15.908,15.908,0,0,1,3.538,1.6c.27.159.541.316.808.48a16.453,16.453,0,0,1,1.821,1.341,17.984,17.984,0,0,1,2.233,2.167c.474.553.9,1.145,1.342,1.726a16.879,16.879,0,0,1,1.97,3.542c.294.681.517,1.392.758,2.095.129.377.239.762.336,1.149.068.272.075.559.151.828a11.859,11.859,0,0,1,.282,2.127.675.675,0,0,0,.064.493" transform="translate(-0.001 -1.038)" fill="#103b51"/>
      <path id="Trazado_27" data-name="Trazado 27" d="M3495.923,1616.725a.675.675,0,0,1-.064-.493l.064.493" transform="translate(-3456.498 -1598.048)" fill="#103b51"/>
      <path id="Trazado_28" data-name="Trazado 28" d="M1827.408.043l.1-.046.337.073-.432-.027" transform="translate(-1806.848 0.003)" fill="#103b51"/>
    </g>
  </g>
</svg>
