<svg xmlns="http://www.w3.org/2000/svg" xmlns:xlink="http://www.w3.org/1999/xlink" width="81.166" height="81.162" viewBox="0 0 81.166 81.162">
  <defs>
    <clipPath id="clip-path">
      <rect id="Rectángulo_13" data-name="Rectángulo 13" width="81.166" height="81.162" transform="translate(0 0)" fill="#f99319"/>
    </clipPath>
  </defs>
  <g id="flecha" transform="translate(0 0.004)">
    <g id="Grupo_5" data-name="Grupo 5" transform="translate(0 -0.004)" clip-path="url(#clip-path)">
      <path id="Trazado_45" data-name="Trazado 45" d="M81.02,36.708C82,49.482,78.068,60.89,68.432,70.079a39.132,39.132,0,0,1-28.59,11.073A39.187,39.187,0,0,1,10.924,68.244,39.182,39.182,0,0,1,.038,38.948a39.376,39.376,0,0,1,12.988-28.1A39.692,39.692,0,0,1,39.59.015,39.623,39.623,0,0,1,54.305,2.4,40.661,40.661,0,0,1,76.665,22,43.016,43.016,0,0,1,81.02,36.708M75.376,35.2c-.1-.558-.227-1.409-.422-2.243a38.492,38.492,0,0,0-1.505-5.047A35.125,35.125,0,0,0,56.715,9.276,30.984,30.984,0,0,0,50.3,6.782c-.9-.232-1.808-.451-2.718-.649A13.944,13.944,0,0,0,44.611,5.7,7.958,7.958,0,0,1,43.8,5.63c-.578-.059-1.155-.167-1.734-.173a36.1,36.1,0,0,0-5.347.182c-.35.049-.712.015-1.061.07-.84.132-1.689.245-2.511.456q-2.053.526-4.076,1.17A31.256,31.256,0,0,0,22.3,10.486a35.022,35.022,0,0,0-10.561,9.9,31.716,31.716,0,0,0-3.622,6.613c-.542,1.379-1,2.793-1.456,4.2a16.237,16.237,0,0,0-.567,2.238c-.195,1.132-.325,2.275-.46,3.416-.1.869-.212,1.74-.24,2.613-.03.946.006,1.9.059,2.841.051.9.146,1.8.251,2.7.109.925.222,1.852.392,2.768.135.726.358,1.436.54,2.154A31.147,31.147,0,0,0,8.313,54.7a34.5,34.5,0,0,0,4.955,8.135,35.166,35.166,0,0,0,18.4,11.828q1.086.281,2.189.5c.587.115,1.182.19,1.775.266.465.059.935.084,1.4.137s.9.147,1.355.174c.689.04,1.381.05,2.072.049.654,0,1.311,0,1.962-.054.953-.077,1.9-.189,2.854-.309.9-.114,1.813-.213,2.7-.4a30.405,30.405,0,0,0,3.039-.8c1.1-.353,2.183-.758,3.245-1.208,1.131-.479,2.258-.984,3.336-1.57a34.128,34.128,0,0,0,7.469-5.513,35.074,35.074,0,0,0,5.853-7.41A34.577,34.577,0,0,0,73.346,53.5a31.971,31.971,0,0,0,1.245-3.851c.206-.825.4-1.655.547-2.492.167-.959.288-1.928.4-2.9.083-.693.127-1.391.184-2.087a27.491,27.491,0,0,0-.127-4.79c-.059-.632-.128-1.263-.222-2.183" transform="translate(0 0.004)" fill="#f99319"/>
      <path id="Trazado_46" data-name="Trazado 46" d="M2273.186,1408.907l-7.427-7.427q-3.97-3.969-7.939-7.938a3.768,3.768,0,0,1-1.031-1.517,2.671,2.671,0,0,1,1.678-3.2,2.417,2.417,0,0,1,2.549.465c.83.735,1.606,1.531,2.391,2.315q7.235,7.229,14.463,14.466c.389.389.759.8,1.157,1.174a2.677,2.677,0,0,1,.847,1.736,2.318,2.318,0,0,1-.585,1.83c-.619.665-1.264,1.306-1.906,1.949q-6.2,6.2-12.4,12.4-1.581,1.581-3.158,3.166a2.685,2.685,0,0,1-1.466.655,3.791,3.791,0,0,1-1.691.108,2.974,2.974,0,0,1-1.933-2.087,2.634,2.634,0,0,1,.837-2.464q2.168-2.182,4.348-4.353l11.141-11.149c.036-.036.07-.073.123-.13" transform="translate(-2223.635 -1368.315)" fill="#f99319"/>
    </g>
  </g>
</svg>
