<svg xmlns="http://www.w3.org/2000/svg" xmlns:xlink="http://www.w3.org/1999/xlink" width="91.824" height="91.687" viewBox="0 0 91.824 91.687">
  <defs>
    <clipPath id="clip-path">
      <rect id="Rectángulo_34" data-name="Rectángulo 34" width="91.824" height="91.686" transform="translate(0 0)" fill="none"/>
    </clipPath>
  </defs>
  <g id="logo_footer" data-name="logo footer" transform="translate(0 -0.002)">
    <g id="Grupo_20" data-name="Grupo 20" transform="translate(0 0.002)" clip-path="url(#clip-path)">
      <path id="Trazado_55" data-name="Trazado 55" d="M256.2,379.4a1.42,1.42,0,0,0,.159-.678,1.663,1.663,0,0,0-1.662-1.662c-1.17,0-1.9,1.17-1.915,2.939-.013,2.274,1.17,4.309,2.367,4.309.984,0,1.529-1.37,1.064-2.354a.265.265,0,0,1,.04-.306,1.785,1.785,0,0,1,1.224-.505,1.678,1.678,0,0,1,1.729,1.662c0,1.516-1.968,2.78-4.322,2.78a4.9,4.9,0,1,1,.093-9.8c2.367.013,4.229,1.237,4.229,2.779a1.722,1.722,0,0,1-2.952,1.144.285.285,0,0,1-.053-.306" transform="translate(-228.83 -344.002)" fill="#fff"/>
      <path id="Trazado_56" data-name="Trazado 56" d="M375.351,410.53c0,.944.2,1.569.838,1.676a.244.244,0,0,1,.213.239.253.253,0,0,1-.253.253h-2.367a.868.868,0,0,1-.6-.319.264.264,0,0,0-.292-.04,5.042,5.042,0,0,1-2.274.612c-1.317,0-2.314-.691-2.314-1.782,0-1.9,3.032-1.928,4.455-2.527a.282.282,0,0,0,.16-.253c0-1.2-.346-1.609-.944-1.609a.776.776,0,0,0-.825.851,1.46,1.46,0,0,0,.133.625.244.244,0,0,1-.053.266,1.4,1.4,0,0,1-1.037.439,1.472,1.472,0,0,1-1.529-1.4c0-1.13,1.5-1.9,3.338-1.9,1.995,0,3.351.9,3.351,2.912Zm-2.447-.785a.157.157,0,0,0-.226-.146c-.8.426-1.915.891-1.915,1.662,0,.333.2.558.652.558a2.421,2.421,0,0,0,1.383-.558.272.272,0,0,0,.106-.2Z" transform="translate(-337.152 -371.352)" fill="#fff"/>
      <path id="Trazado_57" data-name="Trazado 57" d="M475.7,412.951c-.8,0-1.68-1.127-1.645-2.236.045-1.435.475-1.993.475-2.91a1.006,1.006,0,0,0-.971-1.024,1.3,1.3,0,0,0-1.157,1.357v2.434c.013.917.226,1.529.851,1.636a.232.232,0,0,1,.2.239.242.242,0,0,1-.239.253h-4.069a.253.253,0,0,1-.253-.253.244.244,0,0,1,.213-.239c.612-.106.824-.718.838-1.636v-3.205a1.419,1.419,0,0,0-.213-.732l-.213-.332a.259.259,0,0,1,.213-.386H471.8a.242.242,0,0,1,.239.253v.386a.106.106,0,0,0,.186.067,3.053,3.053,0,0,1,2.341-.958,2.246,2.246,0,0,1,2.433,1.968c0,1.157-1.21,1.968-1.21,2.514,0,.186.16.319.4.319a.535.535,0,0,0,.505-.306.251.251,0,0,1,.319-.093,1.289,1.289,0,0,1,.878,1.224c0,.984-.9,1.662-2.181,1.662" transform="translate(-429.237 -371.352)" fill="#fff"/>
      <path id="Trazado_58" data-name="Trazado 58" d="M580.55,397.262a2.137,2.137,0,0,1-2.367-2.128l-.013-3.763a.267.267,0,0,0-.266-.266h-.2a.267.267,0,0,1-.266-.266v-.372a.271.271,0,0,1,.2-.266c.944-.2,1.516-1.676,2.447-1.676h.279a.267.267,0,0,1,.266.266v1.17a.267.267,0,0,0,.266.266h.957a.267.267,0,0,1,.266.266v.332a.267.267,0,0,1-.266.266H580.9a.267.267,0,0,0-.266.266v3.1c0,.186.146.319.4.319a.554.554,0,0,0,.492-.293.275.275,0,0,1,.346-.106,1.31,1.31,0,0,1,.865,1.237c0,.971-.9,1.649-2.181,1.649" transform="translate(-528.598 -355.664)" fill="#fff"/>
      <path id="Trazado_59" data-name="Trazado 59" d="M654.317,409.28c0,2.088-1.809,3.67-4.189,3.67-2.34,0-4.069-1.516-4.069-3.6a3.828,3.828,0,0,1,4.136-3.684c2.367,0,4.123,1.556,4.123,3.617m-2.726-.2c-.2-1.463-.931-2.38-1.769-2.274s-1.25,1.21-1.037,2.686.9,2.42,1.729,2.314,1.29-1.263,1.077-2.726" transform="translate(-591.415 -371.352)" fill="#fff"/>
      <path id="Trazado_60" data-name="Trazado 60" d="M754.3,412.181c-2.394,0-3.7-.678-3.7-1.769a1.407,1.407,0,0,1,1.463-1.37,1.591,1.591,0,0,1,1.037.372.268.268,0,0,1,.053.346.855.855,0,0,0-.133.492c0,.532.4.8,1.223.8.652,0,1.011-.159,1.011-.452,0-.984-4.389-1.782-4.389-3.923,0-1.21,1.383-1.955,3.364-1.955,2.021,0,3.4.784,3.4,1.835a1.355,1.355,0,0,1-1.476,1.263,1.464,1.464,0,0,1-1.077-.426.26.26,0,0,1-.04-.319,1,1,0,0,0,.173-.505c0-.452-.412-.731-1.064-.731-.518,0-.8.186-.8.492,0,1.224,4.442,1.862,4.442,4.07,0,1.17-1.25,1.782-3.5,1.782" transform="translate(-687.118 -370.489)" fill="#fff"/>
      <path id="Trazado_61" data-name="Trazado 61" d="M429.867,516.763c0,.542.13.9.512.94a.1.1,0,0,1,.084.092v.1a.093.093,0,0,1-.092.092h-1.833a.087.087,0,0,1-.084-.092v-.084c0-.038-.053-.061-.092-.038a1.38,1.38,0,0,1-.94.344,2.086,2.086,0,0,1-.038-4.171,1.4,1.4,0,0,1,.97.344.06.06,0,0,0,.1-.038v-.787a.784.784,0,0,0-.122-.4l-.176-.283a.088.088,0,0,1,.076-.138h1.543a.093.093,0,0,1,.092.092Zm-2.322-2.215c-.481.069-.756.7-.642,1.535.122.848.573,1.4,1.054,1.329.55-.076.687-.687.573-1.543s-.436-1.4-.985-1.322" transform="translate(-389.376 -469.279)" fill="#fff"/>
      <path id="Trazado_62" data-name="Trazado 62" d="M489,531.439c.359,0,.749-.573.894-.909a.162.162,0,0,1,.214-.076.78.78,0,0,1,.481.626c0,.879-1.047,1.008-1.864,1.008a2.179,2.179,0,0,1-2.414-2.07,2.237,2.237,0,0,1,2.437-2.116c1.07,0,1.841.542,1.841,1.291,0,1.039-1.513,1.276-2.383,1.329a.159.159,0,0,0-.138.237,1.094,1.094,0,0,0,.932.68m-.451-2.88c-.4,0-.7.466-.7,1.184a.161.161,0,0,0,.16.16c.458-.023,1.153-.145,1.153-.688a.654.654,0,0,0-.611-.657" transform="translate(-445.181 -483.252)" fill="#fff"/>
      <path id="Trazado_63" data-name="Trazado 63" d="M573.25,516.764c.008.527.13.879.489.94a.133.133,0,0,1,.115.138.139.139,0,0,1-.137.145h-2.338a.145.145,0,0,1-.145-.145.14.14,0,0,1,.122-.138c.359-.061.481-.412.481-.94V513.4a.572.572,0,0,0-.076-.275l-.168-.26a.144.144,0,0,1,.122-.221h1.4a.139.139,0,0,1,.137.145Z" transform="translate(-522.918 -469.28)" fill="#fff"/>
      <path id="Trazado_64" data-name="Trazado 64" d="M609.331,530.879c0,.542.115.9.481.963a.14.14,0,0,1,.122.138.145.145,0,0,1-.145.145h-1.36a.5.5,0,0,1-.344-.183.152.152,0,0,0-.168-.023,2.9,2.9,0,0,1-1.306.351c-.756,0-1.329-.4-1.329-1.024,0-1.092,1.742-1.108,2.559-1.451a.162.162,0,0,0,.092-.145c0-.688-.2-.924-.542-.924a.446.446,0,0,0-.474.489.838.838,0,0,0,.076.359.14.14,0,0,1-.031.153.806.806,0,0,1-.6.252.845.845,0,0,1-.878-.8c0-.649.863-1.092,1.917-1.092,1.146,0,1.925.519,1.925,1.673Zm-1.406-.451a.09.09,0,0,0-.13-.084c-.458.245-1.1.512-1.1.955,0,.191.115.321.374.321a1.391,1.391,0,0,0,.794-.321.156.156,0,0,0,.061-.115Z" transform="translate(-554.087 -483.418)" fill="#fff"/>
      <path id="Trazado_65" data-name="Trazado 65" d="M267.986,587.44a.27.27,0,0,1,.266.226l.253,2.035a.263.263,0,0,1-.253.293h-.027a.244.244,0,0,1-.239-.173,1.846,1.846,0,0,0-1.835-1.37h-.758a.258.258,0,0,0-.266.266v5.719c0,1,.213,1.676.878,1.8a.237.237,0,0,1,.213.253v.013a.252.252,0,0,1-.253.253h-4.282a.252.252,0,0,1-.253-.253v-.013a.247.247,0,0,1,.213-.253c.638-.12.865-.718.891-1.636v-5.878a.259.259,0,0,0-.266-.266H261.5a1.835,1.835,0,0,0-1.835,1.37.243.243,0,0,1-.239.173h-.013a.266.266,0,0,1-.266-.293l.253-2.035a.27.27,0,0,1,.266-.226Z" transform="translate(-237.223 -537.754)" fill="#fff"/>
      <path id="Trazado_66" data-name="Trazado 66" d="M372.756,590.56a.253.253,0,0,1-.253-.253.244.244,0,0,1,.213-.239c.612-.106.838-.718.851-1.636v-3.3a1.105,1.105,0,0,0-.173-.572l-.253-.4a.249.249,0,0,1,.2-.386,2.606,2.606,0,0,0,2.434,0,.242.242,0,0,1,.239.253v4.4c.013.918.226,1.529.851,1.636a.244.244,0,0,1,.213.239.252.252,0,0,1-.253.253Zm1.995-9.881a1.383,1.383,0,1,1,0,2.766,1.383,1.383,0,0,1,0-2.766" transform="translate(-340.997 -531.565)" fill="#fff"/>
      <path id="Trazado_67" data-name="Trazado 67" d="M429.981,620.17c.625,0,1.3-1,1.556-1.583a.283.283,0,0,1,.372-.133,1.358,1.358,0,0,1,.838,1.09c0,1.529-1.822,1.755-3.245,1.755-2.447,0-4.2-1.5-4.2-3.6,0-2.128,1.835-3.684,4.242-3.684,1.862,0,3.205.944,3.205,2.247,0,1.809-2.633,2.221-4.149,2.314a.277.277,0,0,0-.239.412,1.9,1.9,0,0,0,1.622,1.184m-.785-5.014c-.692,0-1.223.811-1.223,2.061a.281.281,0,0,0,.279.279c.8-.04,2.008-.253,2.008-1.2a1.138,1.138,0,0,0-1.064-1.144" transform="translate(-389.328 -562.08)" fill="#fff"/>
      <path id="Trazado_68" data-name="Trazado 68" d="M523.653,617.6a1.285,1.285,0,0,1-1.011-.426.267.267,0,0,1-.04-.279,1.41,1.41,0,0,0,.146-.6.824.824,0,0,0-.878-.851,1.3,1.3,0,0,0-1.223,1.357v2.434c.013.918.226,1.529.838,1.636a.244.244,0,0,1,.213.24.253.253,0,0,1-.253.253h-4.07a.242.242,0,0,1-.239-.253.232.232,0,0,1,.2-.24c.625-.106.838-.718.851-1.636v-3.325a1.055,1.055,0,0,0-.146-.518l-.332-.519a.193.193,0,0,1,.159-.293h2.154a.261.261,0,0,1,.253.253v.306a.124.124,0,0,0,.213.093,3.032,3.032,0,0,1,2.221-.9c1.436,0,2.527.878,2.527,1.848a1.525,1.525,0,0,1-1.583,1.423" transform="translate(-473.398 -562.367)" fill="#fff"/>
      <path id="Trazado_69" data-name="Trazado 69" d="M618.351,617.6a1.286,1.286,0,0,1-1.011-.426.267.267,0,0,1-.04-.279,1.409,1.409,0,0,0,.146-.6.824.824,0,0,0-.878-.851,1.3,1.3,0,0,0-1.223,1.357v2.434c.013.918.226,1.529.838,1.636a.244.244,0,0,1,.213.24.253.253,0,0,1-.253.253h-4.07a.242.242,0,0,1-.239-.253.232.232,0,0,1,.2-.24c.625-.106.838-.718.851-1.636v-3.325a1.054,1.054,0,0,0-.146-.518l-.332-.519a.193.193,0,0,1,.159-.293h2.154a.261.261,0,0,1,.253.253v.306a.124.124,0,0,0,.213.093,3.032,3.032,0,0,1,2.221-.9c1.436,0,2.527.878,2.527,1.848a1.525,1.525,0,0,1-1.583,1.423" transform="translate(-560.086 -562.367)" fill="#fff"/>
      <path id="Trazado_70" data-name="Trazado 70" d="M717.482,619.194c0,.944.2,1.569.838,1.676a.244.244,0,0,1,.213.239.253.253,0,0,1-.253.253h-2.367a.868.868,0,0,1-.6-.319.264.264,0,0,0-.292-.04,5.041,5.041,0,0,1-2.274.612c-1.317,0-2.314-.691-2.314-1.782,0-1.9,3.032-1.928,4.455-2.527a.282.282,0,0,0,.16-.253c0-1.2-.346-1.609-.944-1.609a.776.776,0,0,0-.825.851,1.461,1.461,0,0,0,.133.625.244.244,0,0,1-.053.266,1.4,1.4,0,0,1-1.037.439,1.472,1.472,0,0,1-1.529-1.4c0-1.13,1.5-1.9,3.338-1.9,1.995,0,3.351.9,3.351,2.912Zm-2.447-.785a.157.157,0,0,0-.226-.146c-.8.426-1.915.891-1.915,1.662,0,.333.2.559.652.559a2.421,2.421,0,0,0,1.383-.559.272.272,0,0,0,.106-.2Z" transform="translate(-650.345 -562.367)" fill="#fff"/>
      <path id="Trazado_71" data-name="Trazado 71" d="M557.327,758.207l.936.059a.861.861,0,0,1,.422.142,7.445,7.445,0,0,0,3.7,1.314c1.933,0,5.21-1.176,6.806-.336,0,0-2.521-4.033-5.462-3.613a14.3,14.3,0,0,0-4.659,1.529,1.491,1.491,0,0,1-.765.18,15.467,15.467,0,0,1-3.486-.431.371.371,0,0,0-.42.138l-.085.119a.217.217,0,0,0,.073.318c.494.261,1.48,1.254.1,4.869-1.765,4.622,4.776,6.637,4.776,6.637s-.442-5-1.835-7.141c-1.11-1.7-.672-2.437-.672-2.437a21.757,21.757,0,0,1,2.148,3.426c.47,1.7,2.978,2.288,6.423,2.96a3.059,3.059,0,0,1,2.437,2.1s.966-5.11-3.068-6.623a12.2,12.2,0,0,0-5.249-1.049.785.785,0,0,1-.68-.276l-1.493-1.778a.066.066,0,0,1,.054-.108" transform="translate(-507.311 -691.822)" fill="#103b51"/>
      <path id="Trazado_72" data-name="Trazado 72" d="M365.89,758.207l-.936.059a.861.861,0,0,0-.422.142,7.445,7.445,0,0,1-3.7,1.314c-1.933,0-5.21-1.176-6.806-.336,0,0,2.521-4.033,5.462-3.613a14.3,14.3,0,0,1,4.659,1.529,1.491,1.491,0,0,0,.765.18,15.467,15.467,0,0,0,3.486-.431.371.371,0,0,1,.42.138l.085.119a.217.217,0,0,1-.073.318c-.494.261-1.48,1.254-.1,4.869,1.765,4.622-4.776,6.637-4.776,6.637s.442-5,1.835-7.141c1.11-1.7.672-2.437.672-2.437a21.756,21.756,0,0,0-2.148,3.426c-.47,1.7-2.978,2.288-6.423,2.96a3.059,3.059,0,0,0-2.437,2.1s-.966-5.11,3.068-6.623a12.2,12.2,0,0,1,5.249-1.049.786.786,0,0,0,.68-.276l1.492-1.778a.066.066,0,0,0-.054-.108" transform="translate(-324.083 -691.822)" fill="#103b51"/>
      <path id="Trazado_73" data-name="Trazado 73" d="M557.327,194.433l.936-.059a.86.86,0,0,0,.422-.142,7.445,7.445,0,0,1,3.7-1.314c1.933,0,5.21,1.176,6.806.336,0,0-2.521,4.033-5.462,3.613a14.305,14.305,0,0,1-4.659-1.529,1.491,1.491,0,0,0-.765-.18,15.475,15.475,0,0,0-3.486.431.371.371,0,0,1-.42-.138l-.085-.119a.217.217,0,0,1,.073-.318c.494-.261,1.48-1.254.1-4.869-1.765-4.622,4.776-6.637,4.776-6.637s-.442,5-1.835,7.141c-1.11,1.7-.672,2.437-.672,2.437a21.754,21.754,0,0,0,2.148-3.426c.47-1.7,2.978-2.288,6.423-2.96a3.059,3.059,0,0,0,2.437-2.1s.966,5.11-3.068,6.623a12.206,12.206,0,0,1-5.249,1.049.785.785,0,0,0-.68.276l-1.493,1.778a.066.066,0,0,0,.054.108" transform="translate(-507.311 -167.987)" fill="#103b51"/>
      <path id="Trazado_74" data-name="Trazado 74" d="M365.89,194.433l-.936-.059a.86.86,0,0,1-.422-.142,7.445,7.445,0,0,0-3.7-1.314c-1.933,0-5.21,1.176-6.806.336,0,0,2.521,4.033,5.462,3.613a14.305,14.305,0,0,0,4.659-1.529,1.491,1.491,0,0,1,.765-.18,15.475,15.475,0,0,1,3.486.431.371.371,0,0,0,.42-.138l.085-.119a.217.217,0,0,0-.073-.318c-.494-.261-1.48-1.254-.1-4.869,1.765-4.622-4.776-6.637-4.776-6.637s.442,5,1.835,7.141c1.11,1.7.672,2.437.672,2.437a21.753,21.753,0,0,1-2.148-3.426c-.47-1.7-2.978-2.288-6.423-2.96a3.059,3.059,0,0,1-2.437-2.1s-.966,5.11,3.068,6.623a12.206,12.206,0,0,0,5.249,1.049.785.785,0,0,1,.68.276l1.492,1.778a.066.066,0,0,1-.054.108" transform="translate(-324.083 -167.987)" fill="#103b51"/>
      <path id="Trazado_75" data-name="Trazado 75" d="M41.683,91.688a6.7,6.7,0,0,1-1.014-.076C37.953,91.2,35.813,89,33.742,86.866a19.474,19.474,0,0,0-4.709-3.955,19.475,19.475,0,0,0-5.984-1.419c-2.944-.391-5.988-.8-7.941-2.727-2.047-2.025-2.481-5.135-2.9-8.143a18.446,18.446,0,0,0-1.393-5.735,18.942,18.942,0,0,0-3.9-4.525C4.723,58.286,2.46,56.139,2,53.341c-.455-2.765.994-5.508,2.394-8.161a19.22,19.22,0,0,0,2.272-5.594,18.1,18.1,0,0,0-.5-5.778c-.567-3.006-1.153-6.113.167-8.74s4.164-4.01,6.914-5.348a18.1,18.1,0,0,0,4.938-3.043,19.217,19.217,0,0,0,3.134-5.161c1.293-2.706,2.631-5.5,5.121-6.79,2.521-1.3,5.593-.765,8.564-.247a18.945,18.945,0,0,0,5.96.433,18.438,18.438,0,0,0,5.434-2.3c2.664-1.457,5.42-2.965,8.266-2.53,2.716.415,4.856,2.617,6.926,4.746A19.473,19.473,0,0,0,66.3,8.779a19.474,19.474,0,0,0,5.984,1.42c2.944.391,5.988.8,7.941,2.727,2.047,2.025,2.481,5.135,2.9,8.143A18.443,18.443,0,0,0,84.515,26.8a18.944,18.944,0,0,0,3.9,4.525c2.188,2.076,4.451,4.222,4.911,7.02.455,2.765-.994,5.508-2.394,8.161A19.217,19.217,0,0,0,88.663,52.1a18.1,18.1,0,0,0,.5,5.778c.567,3.005,1.153,6.113-.167,8.74s-4.164,4.01-6.915,5.348a18.1,18.1,0,0,0-4.938,3.043,19.213,19.213,0,0,0-3.134,5.161c-1.293,2.706-2.631,5.505-5.121,6.79-2.52,1.3-5.593.765-8.564.247a18.954,18.954,0,0,0-5.96-.433,18.438,18.438,0,0,0-5.434,2.3c-2.347,1.284-4.764,2.606-7.252,2.606M30.214,5.285a6.763,6.763,0,0,0-3.148.661c-2.08,1.073-3.261,3.545-4.512,6.162a20.165,20.165,0,0,1-3.4,5.534,19.313,19.313,0,0,1-5.314,3.312c-2.545,1.238-5.177,2.518-6.288,4.731s-.569,5.088-.045,7.869a19.318,19.318,0,0,1,.512,6.241,20.164,20.164,0,0,1-2.415,6.027c-1.354,2.565-2.633,4.987-2.253,7.3.385,2.343,2.384,4.24,4.5,6.247a19.882,19.882,0,0,1,4.179,4.893,19.669,19.669,0,0,1,1.533,6.174c.406,2.91.79,5.658,2.507,7.357,1.625,1.608,4.312,1.965,7.156,2.342a20.43,20.43,0,0,1,6.42,1.554,20.429,20.429,0,0,1,5.077,4.225c2,2.057,3.889,4,6.149,4.346,2.388.365,4.822-.967,7.4-2.377a19.668,19.668,0,0,1,5.869-2.453,19.881,19.881,0,0,1,6.42.435c2.874.5,5.589.974,7.7-.115,2.08-1.073,3.261-3.545,4.512-6.162a20.165,20.165,0,0,1,3.4-5.534,19.318,19.318,0,0,1,5.314-3.312c2.545-1.238,5.177-2.518,6.289-4.731s.569-5.088.045-7.869a19.316,19.316,0,0,1-.512-6.241,20.159,20.159,0,0,1,2.415-6.027c1.354-2.565,2.633-4.987,2.253-7.3-.385-2.343-2.384-4.24-4.5-6.247a19.881,19.881,0,0,1-4.179-4.893,19.671,19.671,0,0,1-1.533-6.174c-.406-2.91-.79-5.658-2.507-7.357-1.625-1.608-4.312-1.965-7.156-2.342a20.424,20.424,0,0,1-6.419-1.554A20.428,20.428,0,0,1,60.6,5.781c-2-2.057-3.889-4-6.149-4.346-2.387-.364-4.822.967-7.4,2.377a19.673,19.673,0,0,1-5.869,2.453,19.88,19.88,0,0,1-6.42-.435,27.516,27.516,0,0,0-4.551-.546" transform="translate(-1.753 -0.002)" fill="#103b51"/>
      <path id="Trazado_76" data-name="Trazado 76" d="M52.945,93.642c-2.392,0-4.768-1.208-7.075-2.382A18.939,18.939,0,0,0,40.3,89.1a18.44,18.44,0,0,0-5.871.606c-2.975.611-6.051,1.242-8.644-.009-2.474-1.194-3.874-3.927-5.227-6.571a19.474,19.474,0,0,0-3.34-5.164,19.473,19.473,0,0,0-5.3-3.114c-2.7-1.238-5.49-2.519-6.79-4.939-1.362-2.537-.864-5.637-.382-8.636a18.442,18.442,0,0,0,.352-5.891,18.946,18.946,0,0,0-2.4-5.472C1.21,47.279-.323,44.563.059,41.753c.377-2.777,2.567-4.973,4.685-7.1a19.216,19.216,0,0,0,3.815-4.68A18.1,18.1,0,0,0,9.773,24.3c.341-3.039.693-6.182,2.726-8.306s5.158-2.611,8.18-3.082a18.1,18.1,0,0,0,5.614-1.458,19.219,19.219,0,0,0,4.511-4.013c2.031-2.207,4.131-4.49,6.889-4.987,2.791-.5,5.571.911,8.259,2.278A18.945,18.945,0,0,0,51.524,6.9a18.451,18.451,0,0,0,5.871-.606c2.975-.611,6.051-1.242,8.644.009,2.474,1.194,3.874,3.927,5.227,6.571a19.473,19.473,0,0,0,3.34,5.164,19.474,19.474,0,0,0,5.3,3.114c2.7,1.238,5.49,2.519,6.79,4.939,1.362,2.537.864,5.637.382,8.636a18.443,18.443,0,0,0-.352,5.892,18.942,18.942,0,0,0,2.4,5.472c1.482,2.627,3.015,5.343,2.633,8.153-.377,2.777-2.567,4.973-4.685,7.1a19.22,19.22,0,0,0-3.815,4.68,18.1,18.1,0,0,0-1.215,5.672c-.341,3.039-.693,6.182-2.726,8.306s-5.158,2.611-8.18,3.082a18.1,18.1,0,0,0-5.614,1.458,19.217,19.217,0,0,0-4.511,4.013c-2.031,2.207-4.131,4.49-6.889,4.987a6.658,6.658,0,0,1-1.184.1M39.212,87.654a9.491,9.491,0,0,1,1.271.081,19.879,19.879,0,0,1,6.009,2.3c2.6,1.323,5.057,2.572,7.393,2.151,2.3-.415,4.158-2.431,6.122-4.565a20.162,20.162,0,0,1,4.871-4.293,19.315,19.315,0,0,1,6.052-1.606c2.8-.436,5.688-.887,7.4-2.675s2.038-4.7,2.354-7.509a19.314,19.314,0,0,1,1.343-6.116,20.163,20.163,0,0,1,4.079-5.052c2.048-2.054,3.982-3.994,4.3-6.314.32-2.353-1.034-4.753-2.468-7.294a19.884,19.884,0,0,1-2.558-5.9,19.671,19.671,0,0,1,.348-6.352c.466-2.9.906-5.641-.236-7.769-1.082-2.014-3.545-3.144-6.153-4.341a20.426,20.426,0,0,1-5.68-3.37A20.43,20.43,0,0,1,70.044,13.5c-1.308-2.554-2.543-4.966-4.6-5.96-2.175-1.05-4.894-.492-7.772.1a19.678,19.678,0,0,1-6.331.622,19.883,19.883,0,0,1-6.009-2.3c-2.6-1.323-5.056-2.572-7.393-2.151-2.3.415-4.159,2.431-6.123,4.565a20.163,20.163,0,0,1-4.871,4.293,19.317,19.317,0,0,1-6.052,1.606c-2.8.436-5.688.887-7.4,2.675s-2.038,4.7-2.353,7.509a19.32,19.32,0,0,1-1.343,6.116,20.164,20.164,0,0,1-4.078,5.052c-2.048,2.054-3.982,3.994-4.3,6.314-.32,2.353,1.034,4.753,2.468,7.294a19.879,19.879,0,0,1,2.558,5.9A19.671,19.671,0,0,1,6.1,61.487c-.466,2.9-.906,5.641.236,7.769C7.415,71.27,9.878,72.4,12.486,73.6a20.429,20.429,0,0,1,5.68,3.371A20.424,20.424,0,0,1,21.779,82.5c1.308,2.554,2.543,4.966,4.6,5.96,2.175,1.05,4.894.492,7.772-.1a25.918,25.918,0,0,1,5.059-.7" transform="translate(0 -2.154)" fill="#103b51"/>
    </g>
  </g>
</svg>
