<svg xmlns="http://www.w3.org/2000/svg" xmlns:xlink="http://www.w3.org/1999/xlink" width="39.514" height="39.514" viewBox="0 0 39.514 39.514">
  <defs>
    <clipPath id="clip-path">
      <rect id="Rectángulo_18" data-name="Rectángulo 18" width="39.514" height="39.514" transform="translate(0 0)" fill="#f99319"/>
    </clipPath>
  </defs>
  <g id="icon_instagram" data-name="icon instagram" transform="translate(0 0)">
    <g id="Grupo_7" data-name="Grupo 7" transform="translate(0 0.001)" clip-path="url(#clip-path)">
      <path id="Trazado_29" data-name="Trazado 29" d="M1256.859,1236.068a12.385,12.385,0,0,0-.3-2.716,4.075,4.075,0,0,0-3.335-3.128,20.923,20.923,0,0,0-3.5-.258,72.472,72.472,0,0,0-9.193.234,4.034,4.034,0,0,0-2.222.953,5,5,0,0,0-1.612,3.612c-.1,1.759-.024,3.528-.025,5.292,0,.94-.008,1.881,0,2.822a13.589,13.589,0,0,0,.313,4.063,4.32,4.32,0,0,0,1.534,2.25,5.827,5.827,0,0,0,3.459,1.015c2.563.068,5.128.036,7.692.033a16.567,16.567,0,0,0,3.436-.237,4.49,4.49,0,0,0,2.911-1.847,5.718,5.718,0,0,0,.823-2.831c.087-1,.082-2,.078-3-.008-2.084-.052-4.169-.059-6.253m-10.088,10.385a6.354,6.354,0,0,1-6.316-6.314,6.337,6.337,0,1,1,12.673.015,6.33,6.33,0,0,1-6.356,6.3m8.073-12.948a1.518,1.518,0,0,1-1.5,1.5,1.607,1.607,0,0,1-1.448-1.486,1.443,1.443,0,0,1,1.452-1.468,1.425,1.425,0,0,1,1.5,1.457" transform="translate(-1227.019 -1220.363)" fill="#f99319"/>
      <path id="Trazado_30" data-name="Trazado 30" d="M2013.083,2008.939a4.12,4.12,0,1,0,4.125,3.909,4.036,4.036,0,0,0-4.125-3.909" transform="translate(-1993.333 -1993.303)" fill="#f99319"/>
      <path id="Trazado_31" data-name="Trazado 31" d="M19.757,0A19.757,19.757,0,1,0,39.514,19.753,19.757,19.757,0,0,0,19.757,0M31.99,25.63a7.218,7.218,0,0,1-1.833,4.312,6.345,6.345,0,0,1-2.864,1.695,13.389,13.389,0,0,1-3.951.466c-1.186-.009-2.371,0-3.557,0-1.521,0-3.043.038-4.562-.011a9.211,9.211,0,0,1-4.38-1.012,6.087,6.087,0,0,1-2.76-3.184,8.11,8.11,0,0,1-.6-2.8q-.05-3.1-.077-6.207-.015-1.662,0-3.324a10.569,10.569,0,0,1,.678-4.013,5.954,5.954,0,0,1,3.077-3.3A9.406,9.406,0,0,1,14.378,7.5c2.928-.245,5.859-.135,8.786-.112a12.485,12.485,0,0,1,4.5.587,6.032,6.032,0,0,1,3.674,3.382A8.21,8.21,0,0,1,32,14.248c.067,2.619.127,5.239.146,7.859a30.538,30.538,0,0,1-.15,3.524" transform="translate(0 0.004)" fill="#f99319"/>
    </g>
  </g>
</svg>
