<svg id="logo_principal" data-name="logo principal" xmlns="http://www.w3.org/2000/svg" xmlns:xlink="http://www.w3.org/1999/xlink" width="72.202" height="72.094" viewBox="0 0 72.202 72.094">
  <defs>
    <clipPath id="clip-path">
      <rect id="Rectángulo_4" data-name="Rectángulo 4" width="72.202" height="72.094" fill="rgba(0,0,0,0)"/>
    </clipPath>
  </defs>
  <g id="Grupo_2" data-name="Grupo 2" clip-path="url(#clip-path)">
    <path id="Trazado_1" data-name="Trazado 1" d="M126.04,184.963a1.116,1.116,0,0,0,.125-.533,1.308,1.308,0,0,0-1.307-1.307c-.92,0-1.5.92-1.506,2.311-.01,1.788.92,3.388,1.861,3.388.774,0,1.2-1.077.837-1.851a.208.208,0,0,1,.031-.24,1.4,1.4,0,0,1,.962-.4,1.32,1.32,0,0,1,1.359,1.307c0,1.192-1.548,2.186-3.4,2.186a3.854,3.854,0,1,1,.073-7.707c1.861.01,3.325.972,3.325,2.185a1.354,1.354,0,0,1-2.322.9.225.225,0,0,1-.042-.241" transform="translate(-104.521 -157.126)"/>
    <path id="Trazado_2" data-name="Trazado 2" d="M184.034,200.425c0,.742.157,1.234.659,1.318a.192.192,0,0,1,.167.188.2.2,0,0,1-.2.2H182.8a.683.683,0,0,1-.471-.251.207.207,0,0,0-.23-.031,3.965,3.965,0,0,1-1.788.481c-1.035,0-1.819-.544-1.819-1.4,0-1.5,2.384-1.516,3.5-1.987a.222.222,0,0,0,.126-.2c0-.941-.272-1.265-.743-1.265a.61.61,0,0,0-.648.669,1.147,1.147,0,0,0,.1.492.192.192,0,0,1-.042.209,1.1,1.1,0,0,1-.816.345,1.157,1.157,0,0,1-1.2-1.1c0-.889,1.182-1.5,2.625-1.5,1.569,0,2.635.711,2.635,2.29Zm-1.924-.617a.124.124,0,0,0-.178-.115c-.627.335-1.506.7-1.506,1.307,0,.261.157.439.512.439a1.9,1.9,0,0,0,1.087-.439.214.214,0,0,0,.084-.157Z" transform="translate(-153.998 -169.619)"/>
    <path id="Trazado_3" data-name="Trazado 3" d="M232.6,202.327c-.629,0-1.321-.887-1.294-1.758.035-1.129.374-1.567.374-2.288a.791.791,0,0,0-.763-.805,1.021,1.021,0,0,0-.91,1.067v1.914c.01.721.178,1.2.669,1.286a.183.183,0,0,1,.157.188.19.19,0,0,1-.188.2h-3.2a.2.2,0,0,1-.2-.2.192.192,0,0,1,.167-.188c.481-.084.648-.565.659-1.286v-2.52a1.116,1.116,0,0,0-.167-.575l-.167-.261a.2.2,0,0,1,.167-.3h1.621a.19.19,0,0,1,.188.2v.3a.083.083,0,0,0,.146.052,2.4,2.4,0,0,1,1.841-.753,1.766,1.766,0,0,1,1.913,1.548c0,.91-.952,1.548-.952,1.976,0,.146.126.251.314.251a.42.42,0,0,0,.4-.241.2.2,0,0,1,.251-.073,1.013,1.013,0,0,1,.69.962c0,.774-.711,1.307-1.715,1.307" transform="translate(-196.058 -169.618)"/>
    <path id="Trazado_4" data-name="Trazado 4" d="M282.293,195.161a1.68,1.68,0,0,1-1.861-1.673l-.01-2.959a.21.21,0,0,0-.209-.209h-.157a.21.21,0,0,1-.209-.209v-.293a.214.214,0,0,1,.157-.209c.743-.157,1.192-1.318,1.924-1.318h.22a.21.21,0,0,1,.209.209v.92a.21.21,0,0,0,.209.209h.753a.21.21,0,0,1,.209.209v.261a.21.21,0,0,1-.209.209h-.753a.21.21,0,0,0-.209.209v2.436c0,.146.115.251.314.251a.436.436,0,0,0,.387-.23.216.216,0,0,1,.272-.084,1.03,1.03,0,0,1,.68.972c0,.764-.711,1.3-1.715,1.3" transform="translate(-241.443 -162.452)"/>
    <path id="Trazado_5" data-name="Trazado 5" d="M319.6,199.441a3.047,3.047,0,0,1-3.294,2.886,2.941,2.941,0,0,1-3.2-2.834,3.272,3.272,0,0,1,6.494-.052m-2.144-.157c-.157-1.15-.732-1.872-1.391-1.788s-.983.952-.816,2.112.711,1.9,1.359,1.82,1.014-.993.847-2.144" transform="translate(-270.135 -169.618)"/>
    <path id="Trazado_6" data-name="Trazado 6" d="M366.675,202.006c-1.882,0-2.907-.533-2.907-1.391a1.106,1.106,0,0,1,1.15-1.077,1.251,1.251,0,0,1,.816.293.211.211,0,0,1,.042.272.672.672,0,0,0-.1.387c0,.418.314.627.962.627.512,0,.795-.125.795-.355,0-.774-3.451-1.4-3.451-3.085,0-.952,1.087-1.537,2.645-1.537,1.59,0,2.677.617,2.677,1.443a1.066,1.066,0,0,1-1.161.993,1.151,1.151,0,0,1-.847-.335.2.2,0,0,1-.031-.251.787.787,0,0,0,.136-.4c0-.355-.324-.575-.837-.575-.408,0-.627.146-.627.387,0,.962,3.493,1.464,3.493,3.2,0,.92-.983,1.4-2.75,1.4" transform="translate(-313.848 -169.224)"/>
    <path id="Trazado_7" data-name="Trazado 7" d="M209.689,251.685c0,.426.1.709.4.739a.077.077,0,0,1,.066.072v.078a.073.073,0,0,1-.072.072h-1.442a.068.068,0,0,1-.066-.072v-.066c0-.03-.042-.048-.072-.03a1.085,1.085,0,0,1-.739.27,1.64,1.64,0,0,1-.03-3.28,1.1,1.1,0,0,1,.763.27.047.047,0,0,0,.078-.03v-.619a.615.615,0,0,0-.1-.318l-.138-.222a.069.069,0,0,1,.06-.108h1.213a.073.073,0,0,1,.072.072Zm-1.826-1.742c-.378.054-.595.553-.5,1.207s.451,1.1.829,1.045c.432-.06.541-.541.45-1.213s-.342-1.1-.775-1.039" transform="translate(-177.851 -214.347)"/>
    <path id="Trazado_8" data-name="Trazado 8" d="M237.8,258.62c.282,0,.589-.45.7-.715a.128.128,0,0,1,.168-.06.614.614,0,0,1,.379.492c0,.691-.823.793-1.466.793a1.713,1.713,0,0,1-1.9-1.628,1.759,1.759,0,0,1,1.916-1.664c.841,0,1.448.426,1.448,1.015,0,.817-1.189,1-1.874,1.045a.125.125,0,0,0-.108.186.86.86,0,0,0,.733.534m-.354-2.265c-.312,0-.553.366-.553.931a.127.127,0,0,0,.126.126c.361-.018.907-.114.907-.541a.514.514,0,0,0-.481-.517" transform="translate(-203.34 -220.73)"/>
    <path id="Trazado_9" data-name="Trazado 9" d="M278.425,251.685c.006.414.1.691.384.739a.1.1,0,0,1,.09.108.109.109,0,0,1-.108.114h-1.838a.114.114,0,0,1-.114-.114.11.11,0,0,1,.1-.108c.282-.048.378-.324.378-.739v-2.649a.451.451,0,0,0-.06-.216l-.132-.2a.113.113,0,0,1,.1-.174h1.1a.109.109,0,0,1,.108.114Z" transform="translate(-238.848 -214.347)"/>
    <path id="Trazado_10" data-name="Trazado 10" d="M296.524,258.125c0,.426.09.709.378.757a.11.11,0,0,1,.1.108.114.114,0,0,1-.114.114h-1.069a.392.392,0,0,1-.27-.144.119.119,0,0,0-.132-.018,2.278,2.278,0,0,1-1.027.276c-.595,0-1.045-.312-1.045-.8,0-.859,1.37-.871,2.012-1.141a.127.127,0,0,0,.072-.114c0-.541-.156-.727-.427-.727a.35.35,0,0,0-.372.384.661.661,0,0,0,.06.282.11.11,0,0,1-.024.12.634.634,0,0,1-.469.2.665.665,0,0,1-.691-.631c0-.511.679-.859,1.508-.859.9,0,1.514.409,1.514,1.316Zm-1.105-.354a.071.071,0,0,0-.1-.066c-.36.192-.865.4-.865.751,0,.15.09.252.294.252a1.094,1.094,0,0,0,.625-.252.123.123,0,0,0,.048-.09Z" transform="translate(-253.085 -220.805)"/>
    <path id="Trazado_11" data-name="Trazado 11" d="M132.543,284.692a.213.213,0,0,1,.209.178l.2,1.6a.207.207,0,0,1-.2.23h-.021a.191.191,0,0,1-.188-.136,1.452,1.452,0,0,0-1.443-1.077h-.6a.2.2,0,0,0-.209.209v4.5c0,.784.167,1.318.69,1.412a.186.186,0,0,1,.167.2v.011a.2.2,0,0,1-.2.2h-3.367a.2.2,0,0,1-.2-.2V291.8a.194.194,0,0,1,.167-.2c.5-.094.68-.565.7-1.286V285.7a.2.2,0,0,0-.209-.209h-.607A1.443,1.443,0,0,0,126,286.564a.191.191,0,0,1-.188.136h-.01a.209.209,0,0,1-.209-.23l.2-1.6a.213.213,0,0,1,.209-.178Z" transform="translate(-108.354 -245.624)"/>
    <path id="Trazado_12" data-name="Trazado 12" d="M180.726,289.185a.2.2,0,0,1-.2-.2.192.192,0,0,1,.167-.188c.481-.084.659-.565.669-1.286v-2.593a.869.869,0,0,0-.136-.45l-.2-.314a.2.2,0,0,1,.157-.3,2.05,2.05,0,0,0,1.914,0,.19.19,0,0,1,.188.2v3.461c.011.721.178,1.2.669,1.286a.191.191,0,0,1,.167.188.2.2,0,0,1-.2.2Zm1.568-7.769a1.088,1.088,0,1,1,0,2.175,1.088,1.088,0,0,1,0-2.175" transform="translate(-155.753 -242.797)"/>
    <path id="Trazado_13" data-name="Trazado 13" d="M209.8,302.412c.492,0,1.025-.784,1.224-1.244a.222.222,0,0,1,.293-.1,1.068,1.068,0,0,1,.659.857c0,1.2-1.433,1.38-2.551,1.38-1.924,0-3.3-1.182-3.3-2.834a3.061,3.061,0,0,1,3.336-2.9c1.464,0,2.52.742,2.52,1.767,0,1.422-2.071,1.746-3.262,1.819a.218.218,0,0,0-.188.324,1.5,1.5,0,0,0,1.276.931m-.617-3.942c-.544,0-.962.638-.962,1.621a.221.221,0,0,0,.22.22c.627-.031,1.579-.2,1.579-.941a.9.9,0,0,0-.837-.9" transform="translate(-177.83 -256.735)"/>
    <path id="Trazado_14" data-name="Trazado 14" d="M255.746,300.3a1.011,1.011,0,0,1-.795-.335.21.21,0,0,1-.031-.22,1.11,1.11,0,0,0,.115-.471.648.648,0,0,0-.69-.669,1.026,1.026,0,0,0-.962,1.067v1.914c.01.721.178,1.2.659,1.286a.192.192,0,0,1,.167.188.2.2,0,0,1-.2.2h-3.2a.19.19,0,0,1-.188-.2.183.183,0,0,1,.157-.188c.492-.084.659-.565.669-1.286v-2.614a.83.83,0,0,0-.115-.408l-.261-.408a.151.151,0,0,1,.125-.23h1.694a.205.205,0,0,1,.2.2v.241a.1.1,0,0,0,.167.073,2.384,2.384,0,0,1,1.746-.711c1.129,0,1.987.69,1.987,1.453a1.2,1.2,0,0,1-1.244,1.119" transform="translate(-216.229 -256.867)"/>
    <path id="Trazado_15" data-name="Trazado 15" d="M301.64,300.3a1.011,1.011,0,0,1-.795-.335.21.21,0,0,1-.031-.22,1.11,1.11,0,0,0,.115-.471.648.648,0,0,0-.69-.669,1.026,1.026,0,0,0-.962,1.067v1.914c.01.721.178,1.2.659,1.286a.192.192,0,0,1,.167.188.2.2,0,0,1-.2.2h-3.2a.19.19,0,0,1-.188-.2.183.183,0,0,1,.157-.188c.492-.084.659-.565.669-1.286v-2.614a.83.83,0,0,0-.115-.408l-.261-.408a.151.151,0,0,1,.125-.23h1.694a.205.205,0,0,1,.2.2v.241a.1.1,0,0,0,.167.073,2.384,2.384,0,0,1,1.746-.711c1.129,0,1.987.69,1.987,1.453a1.2,1.2,0,0,1-1.244,1.119" transform="translate(-255.825 -256.867)"/>
    <path id="Trazado_16" data-name="Trazado 16" d="M349.843,301.55c0,.742.157,1.234.659,1.318a.192.192,0,0,1,.167.188.2.2,0,0,1-.2.2h-1.861a.683.683,0,0,1-.471-.251.207.207,0,0,0-.23-.031,3.965,3.965,0,0,1-1.788.481c-1.035,0-1.819-.544-1.819-1.4,0-1.5,2.384-1.516,3.5-1.987a.222.222,0,0,0,.126-.2c0-.941-.272-1.265-.743-1.265a.61.61,0,0,0-.648.669,1.147,1.147,0,0,0,.1.492.192.192,0,0,1-.042.209,1.1,1.1,0,0,1-.816.345,1.157,1.157,0,0,1-1.2-1.1c0-.889,1.182-1.5,2.625-1.5,1.569,0,2.635.711,2.635,2.29Zm-1.924-.617a.124.124,0,0,0-.178-.115c-.627.335-1.506.7-1.506,1.307,0,.261.157.439.512.439a1.9,1.9,0,0,0,1.087-.439.214.214,0,0,0,.084-.157Z" transform="translate(-297.053 -256.867)"/>
    <path id="Trazado_17" data-name="Trazado 17" d="M271.048,368.2l.736.047a.674.674,0,0,1,.332.112,5.854,5.854,0,0,0,2.908,1.033c1.52,0,4.1-.925,5.352-.264,0,0-1.982-3.172-4.295-2.841a11.25,11.25,0,0,0-3.663,1.2,1.172,1.172,0,0,1-.6.142,12.171,12.171,0,0,1-2.741-.339.291.291,0,0,0-.33.108l-.067.094a.17.17,0,0,0,.058.25c.389.205,1.163.986.078,3.829-1.388,3.634,3.756,5.219,3.756,5.219s-.348-3.935-1.443-5.615c-.873-1.339-.529-1.916-.529-1.916a17.108,17.108,0,0,1,1.689,2.694c.37,1.337,2.341,1.8,5.05,2.327a2.4,2.4,0,0,1,1.916,1.652s.759-4.018-2.412-5.207a9.6,9.6,0,0,0-4.127-.825.617.617,0,0,1-.535-.217L271,368.28a.052.052,0,0,1,.043-.085" transform="translate(-231.719 -315.996)" fill="#f99319"/>
    <path id="Trazado_18" data-name="Trazado 18" d="M180.9,368.2l-.736.047a.674.674,0,0,0-.332.112,5.854,5.854,0,0,1-2.908,1.033c-1.52,0-4.1-.925-5.352-.264,0,0,1.982-3.172,4.295-2.841a11.25,11.25,0,0,1,3.663,1.2,1.172,1.172,0,0,0,.6.142,12.171,12.171,0,0,0,2.741-.339.292.292,0,0,1,.33.108l.067.094a.17.17,0,0,1-.058.25c-.389.205-1.163.986-.078,3.829,1.388,3.634-3.756,5.219-3.756,5.219s.348-3.935,1.443-5.615c.873-1.339.529-1.916.529-1.916a17.107,17.107,0,0,0-1.689,2.694c-.37,1.337-2.341,1.8-5.05,2.327a2.4,2.4,0,0,0-1.916,1.652s-.759-4.018,2.412-5.207a9.6,9.6,0,0,1,4.127-.825.617.617,0,0,0,.535-.217l1.174-1.4a.052.052,0,0,0-.043-.085" transform="translate(-148.028 -315.996)" fill="#f99319"/>
    <path id="Trazado_19" data-name="Trazado 19" d="M271.048,97.524l.736-.047a.675.675,0,0,0,.332-.112,5.854,5.854,0,0,1,2.908-1.033c1.52,0,4.1.925,5.352.264,0,0-1.982,3.172-4.295,2.841a11.25,11.25,0,0,1-3.663-1.2,1.172,1.172,0,0,0-.6-.142,12.172,12.172,0,0,0-2.741.339.291.291,0,0,1-.33-.108l-.067-.094a.17.17,0,0,1,.058-.25c.389-.205,1.163-.986.078-3.829-1.388-3.634,3.756-5.219,3.756-5.219s-.348,3.935-1.443,5.615c-.873,1.339-.529,1.916-.529,1.916a17.1,17.1,0,0,0,1.689-2.694c.37-1.337,2.341-1.8,5.05-2.327a2.4,2.4,0,0,0,1.916-1.652s.759,4.018-2.412,5.207a9.6,9.6,0,0,1-4.127.825.617.617,0,0,0-.535.217L271,97.44a.052.052,0,0,0,.043.085" transform="translate(-231.719 -76.73)" fill="#f99319"/>
    <path id="Trazado_20" data-name="Trazado 20" d="M180.9,97.524l-.736-.047a.675.675,0,0,1-.332-.112,5.854,5.854,0,0,0-2.908-1.033c-1.52,0-4.1.925-5.352.264,0,0,1.982,3.172,4.295,2.841a11.25,11.25,0,0,0,3.663-1.2,1.172,1.172,0,0,1,.6-.142,12.172,12.172,0,0,1,2.741.339.292.292,0,0,0,.33-.108l.067-.094a.17.17,0,0,0-.058-.25c-.389-.205-1.163-.986-.078-3.829,1.388-3.634-3.756-5.219-3.756-5.219s.348,3.935,1.443,5.615c.873,1.339.529,1.916.529,1.916a17.1,17.1,0,0,1-1.689-2.694c-.37-1.337-2.341-1.8-5.05-2.327a2.4,2.4,0,0,1-1.916-1.652s-.759,4.018,2.412,5.207a9.6,9.6,0,0,0,4.127.825.617.617,0,0,1,.535.217l1.174,1.4a.052.052,0,0,1-.043.085" transform="translate(-148.028 -76.73)" fill="#f99319"/>
    <path id="Trazado_21" data-name="Trazado 21" d="M32.2,72.095a5.272,5.272,0,0,1-.8-.06c-2.135-.326-3.818-2.057-5.446-3.732a15.309,15.309,0,0,0-3.7-3.11,15.3,15.3,0,0,0-4.705-1.116c-2.315-.308-4.708-.625-6.244-2.144-1.61-1.592-1.951-4.038-2.281-6.4a14.5,14.5,0,0,0-1.1-4.51,14.9,14.9,0,0,0-3.069-3.558c-1.72-1.632-3.5-3.32-3.861-5.52-.357-2.174.781-4.331,1.882-6.417a15.115,15.115,0,0,0,1.787-4.4,14.232,14.232,0,0,0-.4-4.544c-.446-2.363-.907-4.807.131-6.872S7.674,16.557,9.836,15.5a14.232,14.232,0,0,0,3.883-2.392,15.112,15.112,0,0,0,2.464-4.058C17.2,6.926,18.252,4.725,20.21,3.715c1.982-1.023,4.4-.6,6.734-.195a14.9,14.9,0,0,0,4.687.34A14.5,14.5,0,0,0,35.9,2.05C38,.9,40.165-.282,42.4.06c2.135.326,3.818,2.057,5.446,3.732a15.311,15.311,0,0,0,3.7,3.11,15.313,15.313,0,0,0,4.7,1.116c2.315.307,4.708.625,6.244,2.144,1.61,1.592,1.951,4.038,2.281,6.4a14.5,14.5,0,0,0,1.1,4.51,14.9,14.9,0,0,0,3.069,3.558c1.721,1.632,3.5,3.32,3.861,5.52.357,2.174-.781,4.331-1.882,6.417a15.11,15.11,0,0,0-1.787,4.4,14.228,14.228,0,0,0,.4,4.544c.446,2.363.907,4.807-.131,6.872s-3.274,3.153-5.437,4.206a14.229,14.229,0,0,0-3.883,2.392,15.109,15.109,0,0,0-2.464,4.058c-1.017,2.128-2.068,4.329-4.027,5.339-1.982,1.022-4.4.6-6.734.194a14.9,14.9,0,0,0-4.687-.34A14.5,14.5,0,0,0,37.9,70.046c-1.845,1.009-3.746,2.049-5.7,2.049M23.18,4.154a5.32,5.32,0,0,0-2.475.52c-1.636.844-2.564,2.788-3.548,4.845a15.852,15.852,0,0,1-2.67,4.351,15.188,15.188,0,0,1-4.179,2.6c-2,.974-4.07,1.98-4.945,3.72s-.448,4-.035,6.188a15.189,15.189,0,0,1,.4,4.907,15.86,15.86,0,0,1-1.9,4.739c-1.065,2.017-2.071,3.922-1.772,5.738.3,1.842,1.875,3.334,3.539,4.912a15.632,15.632,0,0,1,3.286,3.847,15.469,15.469,0,0,1,1.205,4.855c.319,2.288.621,4.449,1.971,5.785,1.278,1.264,3.391,1.545,5.627,1.842a16.063,16.063,0,0,1,5.048,1.222,16.062,16.062,0,0,1,3.992,3.322c1.573,1.618,3.058,3.146,4.835,3.417,1.877.287,3.792-.76,5.819-1.869A15.464,15.464,0,0,1,42,67.169a15.628,15.628,0,0,1,5.048.342c2.26.394,4.394.766,6.054-.09,1.636-.844,2.564-2.788,3.548-4.845a15.853,15.853,0,0,1,2.67-4.351,15.192,15.192,0,0,1,4.178-2.6c2-.973,4.071-1.98,4.945-3.72s.448-4,.035-6.187a15.186,15.186,0,0,1-.4-4.907,15.85,15.85,0,0,1,1.9-4.739c1.065-2.017,2.07-3.922,1.772-5.738-.3-1.842-1.875-3.334-3.539-4.912a15.632,15.632,0,0,1-3.286-3.847,15.47,15.47,0,0,1-1.205-4.855c-.319-2.288-.621-4.449-1.971-5.785-1.278-1.264-3.391-1.545-5.627-1.842a16.058,16.058,0,0,1-5.048-1.222,16.063,16.063,0,0,1-3.992-3.322C45.5,2.927,44.017,1.4,42.24,1.127,40.363.841,38.448,1.888,36.421,3a15.462,15.462,0,0,1-4.615,1.929,15.632,15.632,0,0,1-5.048-.342,21.63,21.63,0,0,0-3.578-.429" transform="translate(-0.801 -0.001)" fill="#f99319"/>
    <path id="Trazado_22" data-name="Trazado 22" d="M41.632,72.921c-1.881,0-3.749-.95-5.564-1.873a14.89,14.89,0,0,0-4.38-1.7,14.5,14.5,0,0,0-4.616.477c-2.339.48-4.758.977-6.8-.007-1.946-.939-3.046-3.088-4.11-5.167a15.312,15.312,0,0,0-2.626-4.06,15.31,15.31,0,0,0-4.17-2.449c-2.122-.974-4.317-1.98-5.339-3.883-1.071-1.995-.679-4.433-.3-6.791a14.5,14.5,0,0,0,.277-4.632,14.9,14.9,0,0,0-1.889-4.3C.951,36.466-.254,34.33.047,32.12c.3-2.183,2.019-3.911,3.684-5.581a15.111,15.111,0,0,0,3-3.68,14.233,14.233,0,0,0,.955-4.46c.268-2.39.545-4.861,2.144-6.531s4.056-2.053,6.432-2.423A14.234,14.234,0,0,0,20.675,8.3a15.112,15.112,0,0,0,3.547-3.156c1.6-1.736,3.249-3.53,5.417-3.921,2.195-.4,4.38.716,6.494,1.792a14.9,14.9,0,0,0,4.38,1.7,14.508,14.508,0,0,0,4.616-.477c2.339-.48,4.758-.977,6.8.007,1.946.939,3.046,3.088,4.11,5.167a15.312,15.312,0,0,0,2.626,4.06,15.315,15.315,0,0,0,4.17,2.449c2.123.974,4.317,1.98,5.339,3.883,1.071,1.995.679,4.433.3,6.791a14.5,14.5,0,0,0-.277,4.632,14.893,14.893,0,0,0,1.889,4.3c1.165,2.065,2.371,4.2,2.07,6.411-.3,2.183-2.019,3.911-3.684,5.581a15.112,15.112,0,0,0-3,3.68,14.231,14.231,0,0,0-.955,4.46c-.268,2.39-.545,4.861-2.144,6.531s-4.056,2.053-6.432,2.423a14.231,14.231,0,0,0-4.414,1.147,15.1,15.1,0,0,0-3.547,3.156c-1.6,1.736-3.249,3.53-5.417,3.921a5.243,5.243,0,0,1-.931.082m-10.8-4.708a7.477,7.477,0,0,1,1,.064,15.628,15.628,0,0,1,4.725,1.809c2.045,1.04,3.976,2.022,5.813,1.691,1.811-.326,3.27-1.911,4.814-3.59a15.856,15.856,0,0,1,3.831-3.375,15.19,15.19,0,0,1,4.759-1.263c2.2-.343,4.472-.7,5.819-2.1s1.6-3.693,1.851-5.9A15.186,15.186,0,0,1,64.5,50.732a15.856,15.856,0,0,1,3.207-3.973c1.61-1.615,3.131-3.141,3.379-4.964.252-1.85-.813-3.737-1.941-5.735a15.632,15.632,0,0,1-2.011-4.642,15.465,15.465,0,0,1,.274-4.994c.367-2.281.713-4.435-.186-6.109-.85-1.584-2.787-2.472-4.838-3.413a16.063,16.063,0,0,1-4.466-2.65A16.067,16.067,0,0,1,55.077,9.9C54.048,7.9,53.077,6,51.458,5.218c-1.711-.826-3.848-.387-6.111.078a15.468,15.468,0,0,1-4.978.489,15.632,15.632,0,0,1-4.725-1.809c-2.045-1.04-3.976-2.022-5.813-1.691-1.811.326-3.27,1.912-4.814,3.59a15.852,15.852,0,0,1-3.83,3.375,15.187,15.187,0,0,1-4.759,1.263c-2.2.343-4.472.7-5.819,2.1s-1.6,3.693-1.851,5.9A15.188,15.188,0,0,1,7.7,23.329,15.857,15.857,0,0,1,4.495,27.3c-1.61,1.615-3.131,3.141-3.379,4.965C.865,34.116,1.929,36,3.057,38a15.632,15.632,0,0,1,2.011,4.642,15.465,15.465,0,0,1-.274,4.994c-.366,2.281-.713,4.435.186,6.109.85,1.584,2.787,2.472,4.838,3.413a16.066,16.066,0,0,1,4.466,2.65,16.062,16.062,0,0,1,2.84,4.348c1.028,2.008,2,3.905,3.619,4.686,1.71.825,3.848.387,6.111-.078a20.38,20.38,0,0,1,3.978-.552" transform="translate(0 -0.983)" fill="#f99319"/>
  </g>
</svg>
