<svg xmlns="http://www.w3.org/2000/svg" xmlns:xlink="http://www.w3.org/1999/xlink" width="39.514" height="39.514" viewBox="0 0 39.514 39.514">
  <defs>
    <clipPath id="clip-path">
      <rect id="Rectángulo_19" data-name="Rectángulo 19" width="39.514" height="39.514" fill="#103b51"/>
    </clipPath>
  </defs>
  <g id="icon_youtube" data-name="icon youtube" transform="translate(0 -0.003)">
    <g id="Grupo_9" data-name="Grupo 9" transform="translate(0 0.003)" clip-path="url(#clip-path)">
      <path id="Trazado_32" data-name="Trazado 32" d="M370.15,1562.065c.022-.126.049-.253-.061-.357l.061.357" transform="translate(-366.235 -1538.815)" fill="#103b51"/>
      <path id="Trazado_33" data-name="Trazado 33" d="M1589.25,1456.549c-.236.139-.472.276-.709.411-.555.315-1.112.626-1.667.941-.493.28-.984.564-1.478.843-.436.247-.875.491-1.312.736q-1.257.707-2.514,1.414a2.491,2.491,0,0,1-.271.113l-.171.033v-.182c0-.1.006-.2.006-.3q0-2.713,0-5.425,0-1.6,0-3.192c0-.021,0-.041,0-.062,0-.151.016-.16.158-.1.015.006.029.015.044.022.068.031.138.058.2.094.738.411,1.477.822,2.213,1.238.639.361,1.272.731,1.911,1.092q1.731.979,3.465,1.953a.867.867,0,0,1,.162.112.156.156,0,0,1-.029.256" transform="translate(-1564.658 -1436.646)" fill="#103b51"/>
      <path id="Trazado_34" data-name="Trazado 34" d="M19.757,39.517A19.757,19.757,0,1,1,39.514,19.76,19.757,19.757,0,0,1,19.757,39.517M35.563,16.26c-.022-.324-.025-.65-.051-.974s-.068-.633-.106-.949c-.028-.235-.056-.471-.093-.7-.042-.263-.1-.525-.141-.788a2.918,2.918,0,0,1-.054-.388,2.9,2.9,0,0,0-.283-.964,3.384,3.384,0,0,0-.725-1.136,3.477,3.477,0,0,0-.673-.564,9.041,9.041,0,0,0-1.182-.577,3.245,3.245,0,0,0-.688-.138c-.231-.039-.464-.072-.7-.1-.2-.027-.4-.048-.6-.072l-.9-.108c-.114-.014-.227-.038-.342-.041-.427-.013-.854-.014-1.28-.03-.5-.019-1-.048-1.5-.073-.515-.025-1.03-.055-1.546-.072-.48-.016-.961-.017-1.441-.026-.247,0-.494-.019-.742-.019q-3.066,0-6.133,0c-.277,0-.554.008-.83.019-.309.012-.617.038-.926.048-.422.014-.844.011-1.266.028-.374.015-.747.055-1.121.071-.414.017-.829.006-1.242.03s-.849.079-1.273.118c-.294.027-.589.048-.883.08-.17.018-.339.053-.508.08-.19.03-.379.071-.57.088a1.689,1.689,0,0,0-.615.149c-.33.164-.666.315-.994.483a3.05,3.05,0,0,0-1.144,1.118,5.7,5.7,0,0,0-.7,1.754,8.2,8.2,0,0,0-.172,1.091c-.027.243-.083.484-.119.726a3.557,3.557,0,0,0-.03.356c-.01.21-.007.421-.026.63-.033.37-.078.74-.117,1.109,0,.025-.005.049-.006.074-.009.364-.023.727-.026,1.091-.01,1.281-.022,2.563-.023,3.844,0,.458.032.915.049,1.373.109.1.083.231.061.357.021.3.037.591.063.886a9.471,9.471,0,0,0,.14,1.367,6.619,6.619,0,0,1,.085.745,3.352,3.352,0,0,0,.057.374c.065.279.14.555.208.833a4.152,4.152,0,0,0,.82,1.593,3.984,3.984,0,0,0,1.082.909A3.123,3.123,0,0,0,7.64,30.4c.256.03.509.09.764.125.236.033.474.053.712.073.311.026.623.046.934.071.286.023.572.057.858.075.379.023.758.035,1.138.052.359.016.718.036,1.077.049.542.019,1.084.034,1.626.051.616.019,1.232.05,1.848.055q2.745.023,5.491.028c.631,0,1.262-.015,1.893-.031.6-.015,1.19-.04,1.785-.062.305-.011.611-.026.916-.039.416-.018.833-.031,1.249-.054q.5-.027,1.008-.071c.33-.029.658-.072.988-.1.258-.023.517-.024.774-.052s.485-.08.729-.116c.191-.028.385-.036.573-.073a3.837,3.837,0,0,0,1.669-.8,4.223,4.223,0,0,0,1.432-2.4c.1-.424.164-.855.229-1.285.061-.4.107-.808.151-1.214.02-.188.016-.378.028-.567.031-.459.066-.918.1-1.377.011-.16.021-.321.026-.481.011-.389.017-.777.026-1.166.016-.679.044-1.358.046-2.037,0-.5-.023-1.007-.049-1.51-.022-.43-.068-.859-.1-1.289" transform="translate(0 -0.003)" fill="#103b51"/>
    </g>
  </g>
</svg>
